<svg version="1.1" xmlns="http://www.w3.org/2000/svg" viewBox="0 0 250 250"><desc>Created with Snap</desc><defs></defs><g transform="matrix(0.0299,0,0,0.0299,9.1878,136.1478)"><g transform="matrix(22.8044,0,0,22.8044,5726.5929,-1524.3798)"><g><path d="M74.265,60.41c0.964,2.929,1.401,5.966,1.261,9.015c2.584-0.989,5.013-2.49,7.095-4.572c0.244-0.244,0.41-0.527,0.637-0.78   c0.018-0.341,0.105-0.659,0.105-1.004c0-2.924-0.646-5.691-1.764-8.203C79.522,57.139,77.045,59.022,74.265,60.41z" fill="#840707" style=""></path><path d="M54.863,81.605c2.509,1.112,5.276,1.759,8.2,1.759c0.349,0,0.664-0.085,1.004-0.103c0.253-0.227,0.541-0.393,0.781-0.637   c2.08-2.085,3.585-4.516,4.572-7.104c-3.049,0.14-6.086-0.292-9.01-1.257C59.022,77.049,57.137,79.528,54.863,81.605z" fill="#840707" style=""></path><path d="M40.588,74.265c-2.925,0.965-5.965,1.396-9.013,1.257c0.988,2.588,2.49,5.023,4.573,7.104   c0.242,0.244,0.528,0.41,0.779,0.637c0.339,0.018,0.661,0.103,1.003,0.103c2.926,0,5.691-0.646,8.202-1.759   C43.861,79.528,41.976,77.049,40.588,74.265z" fill="#840707" style=""></path><path d="M26.731,60.41c-2.781-1.388-5.26-3.271-7.337-5.545c-1.112,2.512-1.758,5.279-1.758,8.203c0,0.345,0.085,0.663,0.1,1.004   c0.229,0.253,0.395,0.536,0.639,0.78c2.082,2.082,4.515,3.583,7.098,4.572C25.333,66.376,25.767,63.339,26.731,60.41z" fill="#840707" style=""></path><path d="M26.731,40.592c-0.964-2.929-1.398-5.966-1.259-9.016c-2.583,0.989-5.014,2.491-7.098,4.572   c-0.244,0.245-0.41,0.528-0.639,0.781c-0.015,0.341-0.1,0.659-0.1,1.004c0,2.924,0.646,5.69,1.76,8.205   C21.471,43.863,23.95,41.979,26.731,40.592z" fill="#840707" style=""></path><path d="M46.132,19.397c-2.511-1.114-5.275-1.76-8.202-1.76c-0.342,0-0.664,0.084-1.003,0.102   c-0.251,0.228-0.537,0.393-0.779,0.638c-2.083,2.08-3.585,4.515-4.573,7.103c3.048-0.14,6.088,0.293,9.013,1.257   C41.976,23.952,43.861,21.475,46.132,19.397z" fill="#840707" style=""></path><path d="M60.41,26.736c2.924-0.964,5.961-1.396,9.01-1.257c-0.99-2.588-2.492-5.017-4.572-7.103   c-0.24-0.245-0.528-0.41-0.781-0.638c-0.34-0.018-0.659-0.102-1.004-0.102c-2.924,0-5.691,0.646-8.2,1.76   C57.137,21.475,59.022,23.952,60.41,26.736z" fill="#840707" style=""></path><path d="M82.621,36.148c-2.082-2.081-4.511-3.583-7.095-4.572c0.14,3.05-0.297,6.087-1.261,9.016   c2.78,1.388,5.257,3.271,7.334,5.547c1.117-2.515,1.764-5.281,1.764-8.205c0-0.345-0.088-0.663-0.105-1.004   C83.031,36.677,82.865,36.394,82.621,36.148z" fill="#840707" style=""></path><path d="M58.228,63.068c0-0.166-0.048-0.319-0.052-0.484c-1.061-0.21-2.09-0.498-3.099-0.834c-0.462,0.921-0.89,1.851-1.469,2.719   c0.113,0.122,0.19,0.267,0.309,0.384c1.143,1.14,2.404,2.069,3.718,2.881C57.993,66.228,58.228,64.683,58.228,63.068z" fill="#840707" style=""></path><path d="M43.362,67.733c1.313-0.812,2.574-1.741,3.715-2.881c0.12-0.117,0.199-0.262,0.312-0.384   c-0.581-0.868-1.008-1.798-1.471-2.719c-1.008,0.336-2.038,0.624-3.1,0.834c-0.002,0.165-0.048,0.318-0.048,0.484   C42.771,64.683,43.006,66.228,43.362,67.733z" fill="#840707" style=""></path><path d="M36.148,53.922c-1.139,1.14-2.068,2.4-2.88,3.717c1.503,0.355,3.051,0.59,4.663,0.59c0.166,0,0.318-0.044,0.484-0.048   c0.209-1.06,0.495-2.094,0.833-3.102c-0.918-0.463-1.848-0.886-2.716-1.471C36.411,53.726,36.269,53.805,36.148,53.922z" fill="#840707" style=""></path><path d="M38.415,42.821c-0.166-0.006-0.319-0.05-0.484-0.05c-1.612,0-3.159,0.236-4.663,0.591c0.812,1.318,1.739,2.578,2.88,3.717   c0.12,0.118,0.262,0.196,0.384,0.314c0.868-0.583,1.797-1.008,2.716-1.471C38.91,44.916,38.625,43.881,38.415,42.821z" fill="#840707" style=""></path><path d="M42.771,37.934c0,0.166,0.046,0.318,0.048,0.484c1.062,0.21,2.092,0.498,3.1,0.834c0.462-0.921,0.89-1.851,1.471-2.719   c-0.113-0.123-0.192-0.267-0.312-0.385c-1.141-1.139-2.402-2.066-3.715-2.879C43.006,34.774,42.771,36.319,42.771,37.934z" fill="#840707" style=""></path><path d="M57.635,33.27c-1.314,0.812-2.575,1.74-3.718,2.879c-0.118,0.118-0.195,0.262-0.309,0.385   c0.579,0.868,1.007,1.798,1.469,2.719c1.008-0.336,2.038-0.624,3.099-0.834c0.004-0.166,0.052-0.318,0.052-0.484   C58.228,36.319,57.993,34.774,57.635,33.27z" fill="#840707" style=""></path><path d="M63.063,42.771c-0.166,0-0.314,0.044-0.48,0.05c-0.209,1.06-0.498,2.095-0.838,3.102c0.921,0.463,1.851,0.888,2.719,1.471   c0.122-0.118,0.266-0.196,0.384-0.314c1.139-1.139,2.067-2.398,2.883-3.717C66.226,43.008,64.678,42.771,63.063,42.771z" fill="#840707" style=""></path><path d="M48.074,49.493c-0.035,0.676-0.035,1.339,0,2.012c0.452,0.502,0.921,0.969,1.42,1.423c0.671,0.034,1.335,0.034,2.007,0   c0.5-0.454,0.972-0.926,1.423-1.423c0.035-0.673,0.033-1.336,0-2.008c-0.451-0.502-0.921-0.969-1.42-1.423   c-0.673-0.035-1.34-0.035-2.012,0C48.995,48.528,48.524,48.995,48.074,49.493z" fill="#840707" style=""></path><path d="M64.464,53.608c-0.868,0.585-1.798,1.008-2.719,1.471c0.34,1.008,0.628,2.042,0.838,3.102   c0.166,0.004,0.314,0.048,0.48,0.048c1.615,0,3.163-0.234,4.668-0.59c-0.816-1.316-1.745-2.577-2.883-3.717   C64.73,53.805,64.586,53.726,64.464,53.608z" fill="#840707" style=""></path><path d="M72.271,55.926c2.583-1.327,4.827-3.173,6.615-5.425c-1.788-2.252-4.031-4.098-6.615-5.425   c-1.091,1.929-2.357,3.784-3.998,5.425C69.914,52.142,71.179,53.996,72.271,55.926z" fill="#840707" style=""></path><path d="M62.138,31.245c0.585,2.133,0.925,4.367,0.925,6.688c2.322,0,4.555,0.341,6.689,0.93c0.868-2.745,1.143-5.603,0.82-8.436   C67.74,30.104,64.879,30.375,62.138,31.245z" fill="#840707" style=""></path><path d="M50.498,22.11c-2.253,1.794-4.099,4.033-5.424,6.616c1.927,1.096,3.782,2.361,5.424,4.002   c1.644-1.641,3.498-2.906,5.426-4.002C54.597,26.144,52.752,23.904,50.498,22.11z" fill="#840707" style=""></path><path d="M37.931,37.934c0-2.321,0.34-4.556,0.927-6.688c-2.74-0.87-5.601-1.141-8.432-0.817c-0.323,2.833-0.05,5.69,0.817,8.436   C33.377,38.274,35.612,37.934,37.931,37.934z" fill="#840707" style=""></path><path d="M22.108,50.501c1.794,2.252,4.034,4.098,6.618,5.425c1.091-1.93,2.356-3.784,3.999-5.425   c-1.643-1.641-2.908-3.496-4.001-5.425C26.143,46.403,23.902,48.249,22.108,50.501z" fill="#840707" style=""></path><path d="M38.858,69.757c-0.587-2.133-0.927-4.367-0.927-6.688c-2.319,0-4.553-0.341-6.688-0.93   c-0.868,2.745-1.14,5.604-0.817,8.436C33.257,70.896,36.118,70.627,38.858,69.757z" fill="#840707" style=""></path><path d="M50.498,78.891c2.255-1.793,4.1-4.032,5.426-6.616c-1.929-1.095-3.782-2.36-5.426-4c-1.642,1.64-3.497,2.905-5.424,4   C46.401,74.858,48.245,77.098,50.498,78.891z" fill="#840707" style=""></path><path d="M63.063,63.068c0,2.321-0.34,4.556-0.925,6.688c2.741,0.87,5.602,1.139,8.435,0.817c0.323-2.832,0.048-5.695-0.82-8.436   C67.618,62.728,65.385,63.068,63.063,63.068z" fill="#840707" style=""></path><path d="M87.425,44.026c-0.571,2.304-1.457,4.476-2.614,6.475c1.157,1.999,2.043,4.177,2.614,6.475   C88.844,52.771,88.844,48.231,87.425,44.026z" fill="#840707" style=""></path><path d="M81.233,29.05c-1.981-4.041-5.244-7.301-9.286-9.282c1.249,2.063,2.147,4.268,2.745,6.541   C76.966,26.907,79.165,27.802,81.233,29.05z" fill="#840707" style=""></path><path d="M56.971,13.576c-4.204-1.418-8.742-1.418-12.947,0c2.3,0.571,4.473,1.453,6.473,2.614   C52.5,15.029,54.671,14.147,56.971,13.576z" fill="#840707" style=""></path><path d="M29.047,19.768c-4.042,1.981-7.301,5.241-9.284,9.282c2.066-1.248,4.268-2.143,6.541-2.741   C26.904,24.035,27.798,21.831,29.047,19.768z" fill="#840707" style=""></path><path d="M13.571,56.973c0.574-2.3,1.458-4.473,2.616-6.472c-1.159-1.999-2.04-4.171-2.616-6.472   C12.158,48.231,12.158,52.771,13.571,56.973z" fill="#840707" style=""></path><path d="M19.765,71.952c1.981,4.041,5.24,7.297,9.279,9.282c-1.248-2.068-2.141-4.269-2.741-6.542   C24.031,74.095,21.829,73.2,19.765,71.952z" fill="#840707" style=""></path><path d="M44.024,87.426c4.205,1.418,8.746,1.418,12.947,0c-2.3-0.572-4.472-1.453-6.474-2.614   C48.498,85.973,46.324,86.854,44.024,87.426z" fill="#840707" style=""></path><path d="M71.952,81.234c4.037-1.985,7.3-5.241,9.281-9.282c-2.068,1.248-4.267,2.143-6.541,2.74   C74.095,76.966,73.2,79.166,71.952,81.234z" fill="#840707" style=""></path></g><desc>Created with Snap</desc><defs></defs></g><g><g transform="matrix(1.024,0,0,-1.024,0,0)"><path d="M255 221L255 700L350 700L350 231Q350 167 336 121Q322 75 296 45Q270 16 234 2Q198 -12 154 -12Q108 -12 67 4Q27 20 0 46L46 119Q66 98 94 84Q122 70 151 70Q199 70 227 104Q255 138 255 221ZM475 257Q475 315 493 365Q511 416 543 453Q576 490 621 511Q667 532 721 532Q766 532 802 516Q839 501 866 478L866 520L948 520L948 126Q948 88 966 76Q985 65 1007 65L988 -5Q892 -5 872 73Q860 57 844 41Q829 26 809 14Q789 2 764 -5Q739 -12 709 -12Q660 -12 617 7Q575 26 543 61Q512 96 493 145Q475 195 475 257ZM729 68Q767 68 801 86Q835 104 858 133L858 412Q831 431 798 442Q766 454 730 454Q694 454 664 440Q634 426 612 400Q591 375 579 339Q567 303 567 260Q567 218 579 182Q591 147 613 121Q635 96 664 82Q694 68 729 68ZM1082 42L1120 117Q1146 94 1185 80Q1225 66 1270 66Q1326 66 1354 84Q1383 103 1383 132Q1383 147 1377 160Q1372 173 1357 185Q1343 197 1318 208Q1293 220 1253 234Q1179 259 1143 293Q1107 328 1107 389Q1107 419 1120 445Q1134 471 1159 490Q1185 510 1221 521Q1258 532 1305 532Q1356 532 1394 521Q1433 511 1464 495L1439 421Q1412 437 1377 447Q1343 457 1301 457Q1249 457 1222 436Q1195 415 1195 390Q1195 378 1199 368Q1204 358 1216 349Q1228 340 1248 331Q1268 322 1298 312Q1347 295 1381 277Q1415 260 1436 239Q1457 218 1466 193Q1475 169 1475 139Q1475 104 1460 76Q1445 48 1418 28Q1391 9 1352 -2Q1314 -12 1267 -12Q1207 -12 1160 3Q1113 18 1082 42ZM1981 260Q1981 299 1968 334Q1956 369 1933 395Q1911 421 1880 436Q1850 452 1814 452Q1735 452 1691 400Q1647 348 1647 262Q1647 223 1659 187Q1672 152 1694 125Q1717 99 1747 83Q1778 68 1814 68Q1853 68 1884 82Q1915 96 1936 121Q1958 147 1969 182Q1981 217 1981 260ZM1555 260Q1555 323 1575 373Q1595 424 1629 459Q1664 494 1711 513Q1759 532 1814 532Q1868 532 1915 513Q1963 494 1998 459Q2033 424 2053 374Q2073 324 2073 262Q2073 200 2053 149Q2034 99 1999 63Q1964 27 1916 7Q1869 -12 1814 -12Q1758 -12 1710 8Q1663 28 1628 64Q1594 100 1574 150Q1555 200 1555 260ZM2280 520L2280 433Q2308 475 2351 503Q2395 532 2455 532Q2543 532 2586 479Q2630 426 2630 339L2630 0L2540 0L2540 329Q2540 386 2514 419Q2488 453 2440 453Q2417 453 2395 444Q2373 436 2352 421Q2332 406 2314 386Q2297 366 2283 344L2283 0L2193 0L2193 520L2280 520ZM3095 2L3095 698Q3130 702 3181 705Q3233 708 3301 708Q3430 708 3498 660Q3567 612 3567 528Q3567 472 3538 434Q3509 396 3452 371Q3520 347 3555 305Q3590 263 3590 200Q3590 104 3515 48Q3441 -8 3297 -8Q3236 -8 3181 -6Q3127 -3 3095 2ZM3304 71Q3394 71 3443 103Q3493 135 3493 196Q3493 256 3444 290Q3395 324 3304 324L3190 324L3190 77Q3242 71 3304 71ZM3190 398L3300 398Q3379 398 3425 430Q3472 463 3472 516Q3472 573 3426 602Q3380 631 3300 631Q3267 631 3240 629Q3213 628 3190 626L3190 398ZM3800 740L3800 172Q3800 118 3822 92Q3845 66 3885 66Q3904 66 3922 70Q3940 75 3954 81L3976 8Q3958 0 3931 -6Q3905 -12 3873 -12Q3838 -12 3808 -2Q3779 8 3757 29Q3735 50 3722 83Q3710 116 3710 163L3710 740L3800 740ZM4026 257Q4026 315 4044 365Q4062 416 4094 453Q4127 490 4172 511Q4218 532 4272 532Q4317 532 4353 516Q4390 501 4417 478L4417 520L4499 520L4499 126Q4499 88 4517 76Q4536 65 4558 65L4539 -5Q4443 -5 4423 73Q4411 57 4395 41Q4380 26 4360 14Q4340 2 4315 -5Q4290 -12 4260 -12Q4211 -12 4168 7Q4126 26 4094 61Q4063 96 4044 145Q4026 195 4026 257ZM4280 68Q4318 68 4352 86Q4386 104 4409 133L4409 412Q4382 431 4349 442Q4317 454 4281 454Q4245 454 4215 440Q4185 426 4163 400Q4142 375 4130 339Q4118 303 4118 260Q4118 218 4130 182Q4142 147 4164 121Q4186 96 4215 82Q4245 68 4280 68ZM5037 501L5010 425Q4981 439 4956 445Q4931 452 4900 452Q4865 452 4834 439Q4804 426 4782 401Q4760 377 4747 342Q4735 307 4735 262Q4735 221 4746 186Q4758 151 4779 124Q4800 98 4829 83Q4858 68 4894 68Q4932 68 4959 76Q4986 84 5017 101L5045 25Q5013 8 4975 -2Q4937 -12 4888 -12Q4832 -12 4787 8Q4742 28 4710 64Q4678 100 4660 150Q4643 200 4643 260Q4643 316 4660 365Q4678 415 4711 452Q4744 489 4790 510Q4837 532 4895 532Q4940 532 4973 524Q5006 516 5037 501ZM5150 0L5150 740L5240 740L5240 317L5475 530L5527 473L5326 295L5571 50L5509 -10L5240 267L5240 0L5150 0Z" fill="#500202" style=""></path></g></g></g></svg>